<mxfile host="app.diagrams.net" agent="Mozilla/5.0 (Windows NT 10.0; Win64; x64) AppleWebKit/537.36 (KHTML, like Gecko) Chrome/130.0.0.0 Safari/537.36" version="24.8.6">
  <diagram name="第 1 页" id="-DGqVNVoVX-9x4ux3p5S">
    <mxGraphModel dx="1841" dy="514" grid="1" gridSize="10" guides="1" tooltips="1" connect="1" arrows="1" fold="1" page="1" pageScale="1" pageWidth="827" pageHeight="1169" math="0" shadow="0">
      <root>
        <mxCell id="0" />
        <mxCell id="1" parent="0" />
        <mxCell id="TBsJWtYZwbmAONtyt7oZ-15" style="edgeStyle=orthogonalEdgeStyle;rounded=0;orthogonalLoop=1;jettySize=auto;html=1;entryX=0;entryY=0.5;entryDx=0;entryDy=0;strokeWidth=4;" edge="1" parent="1" source="TBsJWtYZwbmAONtyt7oZ-1" target="TBsJWtYZwbmAONtyt7oZ-13">
          <mxGeometry relative="1" as="geometry" />
        </mxCell>
        <mxCell id="TBsJWtYZwbmAONtyt7oZ-1" value="" style="rounded=0;whiteSpace=wrap;html=1;fillColor=#ffe6cc;strokeColor=#d79b00;" vertex="1" parent="1">
          <mxGeometry x="-130" y="110" width="710" height="370" as="geometry" />
        </mxCell>
        <mxCell id="TBsJWtYZwbmAONtyt7oZ-2" value="&lt;font style=&quot;font-size: 24px;&quot;&gt;&lt;b style=&quot;&quot;&gt;前置准备 AI 生图元数据&lt;/b&gt;&lt;/font&gt;" style="text;html=1;align=center;verticalAlign=middle;whiteSpace=wrap;rounded=0;" vertex="1" parent="1">
          <mxGeometry x="-100" y="130" width="260" height="70" as="geometry" />
        </mxCell>
        <mxCell id="TBsJWtYZwbmAONtyt7oZ-12" style="edgeStyle=orthogonalEdgeStyle;rounded=0;orthogonalLoop=1;jettySize=auto;html=1;" edge="1" parent="1" source="TBsJWtYZwbmAONtyt7oZ-3" target="TBsJWtYZwbmAONtyt7oZ-4">
          <mxGeometry relative="1" as="geometry" />
        </mxCell>
        <mxCell id="TBsJWtYZwbmAONtyt7oZ-3" value="&lt;font style=&quot;font-size: 18px;&quot;&gt;作图配置&lt;/font&gt;" style="rounded=0;whiteSpace=wrap;html=1;" vertex="1" parent="1">
          <mxGeometry x="300" y="180" width="250" height="60" as="geometry" />
        </mxCell>
        <mxCell id="TBsJWtYZwbmAONtyt7oZ-10" style="edgeStyle=orthogonalEdgeStyle;rounded=0;orthogonalLoop=1;jettySize=auto;html=1;entryX=1;entryY=0.5;entryDx=0;entryDy=0;" edge="1" parent="1" source="TBsJWtYZwbmAONtyt7oZ-4" target="TBsJWtYZwbmAONtyt7oZ-5">
          <mxGeometry relative="1" as="geometry" />
        </mxCell>
        <mxCell id="TBsJWtYZwbmAONtyt7oZ-11" value="&lt;font style=&quot;font-size: 18px;&quot;&gt;获取数据&lt;/font&gt;" style="edgeLabel;html=1;align=center;verticalAlign=middle;resizable=0;points=[];" vertex="1" connectable="0" parent="TBsJWtYZwbmAONtyt7oZ-10">
          <mxGeometry x="-0.2622" y="-2" relative="1" as="geometry">
            <mxPoint x="-2" y="48" as="offset" />
          </mxGeometry>
        </mxCell>
        <mxCell id="TBsJWtYZwbmAONtyt7oZ-4" value="&lt;font style=&quot;font-size: 18px;&quot;&gt;切图任务&lt;/font&gt;" style="rounded=0;whiteSpace=wrap;html=1;" vertex="1" parent="1">
          <mxGeometry x="300" y="280" width="250" height="60" as="geometry" />
        </mxCell>
        <mxCell id="TBsJWtYZwbmAONtyt7oZ-5" value="&lt;font style=&quot;font-size: 18px;&quot;&gt;图片库&lt;/font&gt;" style="rounded=0;whiteSpace=wrap;html=1;" vertex="1" parent="1">
          <mxGeometry x="-42.5" y="370" width="130" height="70" as="geometry" />
        </mxCell>
        <mxCell id="TBsJWtYZwbmAONtyt7oZ-7" value="" style="edgeStyle=orthogonalEdgeStyle;rounded=0;orthogonalLoop=1;jettySize=auto;html=1;" edge="1" parent="1" source="TBsJWtYZwbmAONtyt7oZ-6" target="TBsJWtYZwbmAONtyt7oZ-5">
          <mxGeometry relative="1" as="geometry" />
        </mxCell>
        <mxCell id="TBsJWtYZwbmAONtyt7oZ-6" value="&lt;span style=&quot;color: rgb(51, 51, 51); font-family: PingFangSC-Regular, &amp;quot;PingFang SC&amp;quot;, sans-serif; text-align: left;&quot;&gt;&lt;font style=&quot;font-size: 18px;&quot;&gt;海鹰数据&lt;/font&gt;&lt;/span&gt;" style="rounded=0;whiteSpace=wrap;html=1;" vertex="1" parent="1">
          <mxGeometry x="-120" y="250" width="80" height="60" as="geometry" />
        </mxCell>
        <mxCell id="TBsJWtYZwbmAONtyt7oZ-9" style="edgeStyle=orthogonalEdgeStyle;rounded=0;orthogonalLoop=1;jettySize=auto;html=1;" edge="1" parent="1" source="TBsJWtYZwbmAONtyt7oZ-8" target="TBsJWtYZwbmAONtyt7oZ-5">
          <mxGeometry relative="1" as="geometry" />
        </mxCell>
        <mxCell id="TBsJWtYZwbmAONtyt7oZ-8" value="&lt;span style=&quot;color: rgb(51, 51, 51); font-family: PingFangSC-Regular, &amp;quot;PingFang SC&amp;quot;, sans-serif; text-align: left;&quot;&gt;&lt;font style=&quot;font-size: 18px;&quot;&gt;牛魔王数据&lt;/font&gt;&lt;/span&gt;" style="rounded=0;whiteSpace=wrap;html=1;" vertex="1" parent="1">
          <mxGeometry x="-25" y="250" width="95" height="60" as="geometry" />
        </mxCell>
        <mxCell id="TBsJWtYZwbmAONtyt7oZ-28" style="edgeStyle=orthogonalEdgeStyle;rounded=0;orthogonalLoop=1;jettySize=auto;html=1;entryX=0;entryY=0.5;entryDx=0;entryDy=0;strokeWidth=4;" edge="1" parent="1" source="TBsJWtYZwbmAONtyt7oZ-13" target="TBsJWtYZwbmAONtyt7oZ-22">
          <mxGeometry relative="1" as="geometry" />
        </mxCell>
        <mxCell id="TBsJWtYZwbmAONtyt7oZ-13" value="" style="rounded=0;whiteSpace=wrap;html=1;fillColor=#e1d5e7;strokeColor=#9673a6;" vertex="1" parent="1">
          <mxGeometry x="650" y="110" width="340" height="370" as="geometry" />
        </mxCell>
        <mxCell id="TBsJWtYZwbmAONtyt7oZ-14" value="&lt;font style=&quot;font-size: 24px;&quot;&gt;&lt;b style=&quot;&quot;&gt;AI 生图&lt;/b&gt;&lt;/font&gt;" style="text;html=1;align=center;verticalAlign=middle;whiteSpace=wrap;rounded=0;" vertex="1" parent="1">
          <mxGeometry x="670" y="120" width="137" height="70" as="geometry" />
        </mxCell>
        <mxCell id="TBsJWtYZwbmAONtyt7oZ-16" value="&lt;font style=&quot;font-size: 18px;&quot;&gt;文生图&lt;/font&gt;" style="rounded=0;whiteSpace=wrap;html=1;" vertex="1" parent="1">
          <mxGeometry x="700" y="190" width="250" height="50" as="geometry" />
        </mxCell>
        <mxCell id="TBsJWtYZwbmAONtyt7oZ-17" value="&lt;font style=&quot;font-size: 18px;&quot;&gt;图生图&lt;/font&gt;" style="rounded=0;whiteSpace=wrap;html=1;" vertex="1" parent="1">
          <mxGeometry x="700" y="260" width="250" height="50" as="geometry" />
        </mxCell>
        <mxCell id="TBsJWtYZwbmAONtyt7oZ-18" value="&lt;font style=&quot;font-size: 18px;&quot;&gt;套图&lt;/font&gt;" style="rounded=0;whiteSpace=wrap;html=1;" vertex="1" parent="1">
          <mxGeometry x="700" y="340" width="250" height="50" as="geometry" />
        </mxCell>
        <mxCell id="TBsJWtYZwbmAONtyt7oZ-19" value="&lt;span style=&quot;font-size: 18px;&quot;&gt;&lt;b&gt;...&lt;/b&gt;&lt;/span&gt;" style="rounded=0;whiteSpace=wrap;html=1;" vertex="1" parent="1">
          <mxGeometry x="700" y="410" width="250" height="50" as="geometry" />
        </mxCell>
        <mxCell id="TBsJWtYZwbmAONtyt7oZ-21" style="edgeStyle=orthogonalEdgeStyle;rounded=0;orthogonalLoop=1;jettySize=auto;html=1;entryX=0.5;entryY=0;entryDx=0;entryDy=0;exitX=0.5;exitY=1;exitDx=0;exitDy=0;" edge="1" parent="1" source="TBsJWtYZwbmAONtyt7oZ-20" target="TBsJWtYZwbmAONtyt7oZ-5">
          <mxGeometry relative="1" as="geometry" />
        </mxCell>
        <mxCell id="TBsJWtYZwbmAONtyt7oZ-20" value="&lt;div style=&quot;text-align: left;&quot;&gt;&lt;span style=&quot;background-color: initial;&quot;&gt;&lt;font style=&quot;font-size: 18px;&quot; face=&quot;PingFangSC-Regular, PingFang SC, sans-serif&quot; color=&quot;#333333&quot;&gt;其他第三方&lt;/font&gt;&lt;/span&gt;&lt;/div&gt;" style="rounded=0;whiteSpace=wrap;html=1;" vertex="1" parent="1">
          <mxGeometry x="80" y="250" width="100" height="60" as="geometry" />
        </mxCell>
        <mxCell id="TBsJWtYZwbmAONtyt7oZ-22" value="" style="rounded=0;whiteSpace=wrap;html=1;fillColor=#fff2cc;strokeColor=#d6b656;" vertex="1" parent="1">
          <mxGeometry x="1071" y="110" width="340" height="370" as="geometry" />
        </mxCell>
        <mxCell id="TBsJWtYZwbmAONtyt7oZ-23" value="&lt;span style=&quot;font-size: 24px;&quot;&gt;&lt;b&gt;图片转商品&lt;/b&gt;&lt;/span&gt;" style="text;html=1;align=center;verticalAlign=middle;whiteSpace=wrap;rounded=0;" vertex="1" parent="1">
          <mxGeometry x="1091" y="120" width="137" height="70" as="geometry" />
        </mxCell>
        <mxCell id="TBsJWtYZwbmAONtyt7oZ-24" value="&lt;font style=&quot;font-size: 18px;&quot;&gt;选图-提交安审核&lt;/font&gt;" style="rounded=0;whiteSpace=wrap;html=1;" vertex="1" parent="1">
          <mxGeometry x="1116" y="190" width="250" height="50" as="geometry" />
        </mxCell>
        <mxCell id="TBsJWtYZwbmAONtyt7oZ-25" value="&lt;font style=&quot;font-size: 18px;&quot;&gt;审核&lt;/font&gt;" style="rounded=0;whiteSpace=wrap;html=1;" vertex="1" parent="1">
          <mxGeometry x="1116" y="260" width="250" height="50" as="geometry" />
        </mxCell>
        <mxCell id="TBsJWtYZwbmAONtyt7oZ-29" value="&lt;font style=&quot;font-size: 18px;&quot;&gt;创建商品&lt;/font&gt;" style="rounded=0;whiteSpace=wrap;html=1;" vertex="1" parent="1">
          <mxGeometry x="1116" y="340" width="250" height="50" as="geometry" />
        </mxCell>
        <mxCell id="TBsJWtYZwbmAONtyt7oZ-30" value="&lt;span style=&quot;font-size: 18px;&quot;&gt;&lt;b&gt;...&lt;/b&gt;&lt;/span&gt;" style="rounded=0;whiteSpace=wrap;html=1;" vertex="1" parent="1">
          <mxGeometry x="1116" y="410" width="250" height="50" as="geometry" />
        </mxCell>
        <mxCell id="TBsJWtYZwbmAONtyt7oZ-31" value="&lt;span style=&quot;font-size: 18px;&quot;&gt;&lt;b&gt;...&lt;/b&gt;&lt;/span&gt;" style="rounded=0;whiteSpace=wrap;html=1;" vertex="1" parent="1">
          <mxGeometry x="300" y="380" width="250" height="60" as="geometry" />
        </mxCell>
      </root>
    </mxGraphModel>
  </diagram>
</mxfile>
